<?xml version="1.0" encoding="utf-8"?>
<!-- Generator: Adobe Illustrator 17.0.0, SVG Export Plug-In . SVG Version: 6.00 Build 0)  -->
<!DOCTYPE svg PUBLIC "-//W3C//DTD SVG 1.1//EN" "http://www.w3.org/Graphics/SVG/1.1/DTD/svg11.dtd">
<svg version="1.1" id="Capa_1" xmlns="http://www.w3.org/2000/svg" xmlns:xlink="http://www.w3.org/1999/xlink" x="0px" y="0px"
	 width="97.75px" height="97.75px" viewBox="0 0 97.75 97.75" enable-background="new 0 0 97.75 97.75" xml:space="preserve">
<g>
	<g>
		<path fill="#F4F4F4" d="M36.491,40.31c0,0,13.827-0.006,13.858-0.006c3.201,0,5.82-2.344,5.873-5.556
			c0.051-3.244-2.537-6.15-5.781-6.201l-13.766,0.016c-3.249-0.031-5.914,2.537-5.966,5.78
			C30.658,37.586,33.247,40.258,36.491,40.31z"/>
		<path fill="#F4F4F4" d="M62.55,55.48H35.021c-3.244,0-5.875,2.631-5.875,5.875s2.631,5.873,5.875,5.873H62.55
			c3.244,0,5.875-2.629,5.875-5.873S65.794,55.48,62.55,55.48z"/>
		<path fill="#F4F4F4" d="M48.875,0C21.883,0,0,21.882,0,48.875S21.883,97.75,48.875,97.75S97.75,75.868,97.75,48.875
			S75.867,0,48.875,0z M76.777,77.021c-3.776,3.889-9.108,5.972-15.42,6.024h-0.059h-24.61c-0.155,0.002-0.31,0.003-0.463,0.003
			c-7.074,0-12.534-1.994-16.227-5.927c-3.694-3.935-4.878-9.256-4.878-16.649c0.007-0.51-0.042-1.006-0.011-1.496l0.013-25.991
			c0.305-6.445,3.185-10.431,5.353-12.713c3.503-3.689,8.455-5.56,14.721-5.56h0.174L51.48,14.7l0.15,0.004
			c10.533,0.292,18.123,7.623,18.197,17.822c0.275,3.063,0.104,5.896-0.493,8.452c3.541,0.105,7.91,0.725,10.741,4.383
			c2.5,3.23,2.516,6.903,2.537,11.985c0.006,1.04,0.035,3.688,0.035,3.688C82.579,67.613,80.549,73.143,76.777,77.021z"/>
	</g>
</g>
</svg>
