<?xml version="1.0" encoding="utf-8"?>
<!-- Generator: Adobe Illustrator 17.0.0, SVG Export Plug-In . SVG Version: 6.00 Build 0)  -->
<!DOCTYPE svg PUBLIC "-//W3C//DTD SVG 1.1//EN" "http://www.w3.org/Graphics/SVG/1.1/DTD/svg11.dtd">
<svg version="1.1" id="Capa_1" xmlns="http://www.w3.org/2000/svg" xmlns:xlink="http://www.w3.org/1999/xlink" x="0px" y="0px"
	 width="49.652px" height="49.652px" viewBox="0 0 49.652 49.652" style="enable-background:new 0 0 49.652 49.652;"
	 xml:space="preserve">
<style type="text/css">
	.st0{display:none;}
	.st1{display:inline;}
	.st2{fill:#F4F4F4;}
</style>
<g class="st0">
	<g class="st1">
		<path class="st2" d="M24.826,0C11.137,0,0,11.137,0,24.826c0,13.688,11.137,24.826,24.826,24.826
			c13.688,0,24.826-11.138,24.826-24.826C49.652,11.137,38.516,0,24.826,0z M31,25.7h-4.039c0,6.453,0,14.396,0,14.396h-5.985
			c0,0,0-7.866,0-14.396h-2.845v-5.088h2.845v-3.291c0-2.357,1.12-6.04,6.04-6.04l4.435,0.017v4.939c0,0-2.695,0-3.219,0
			s-1.269,0.262-1.269,1.386v2.99h4.56L31,25.7z"/>
	</g>
</g>
<g>
	<g>
		<g>
			<path class="st2" d="M24.826,1.723c-12.759,0-23.103,10.345-23.103,23.103s10.345,23.103,23.103,23.103
				s23.103-10.345,23.103-23.103C47.929,12.064,37.585,1.723,24.826,1.723z M18.38,40.372c-5.114,0-9.429-2.082-9.429-5.409
				c0-3.376,3.936-6.636,9.051-6.634l1.597-0.014c-0.699-0.679-1.253-1.513-1.253-2.544c0-0.612,0.196-1.199,0.468-1.721
				l-0.852,0.029c-4.202,0-7.015-2.989-7.015-6.694c0-3.624,3.884-6.752,8.014-6.752h9.212l-2.068,1.49h-2.92
				c1.938,0.745,2.969,3.003,2.969,5.32c0,1.944-1.077,3.619-2.599,4.808c-1.487,1.164-1.767,1.649-1.767,2.637
				c0,0.843,1.594,2.276,2.426,2.868c2.435,1.721,3.217,3.318,3.217,5.984C27.431,37.065,24.211,40.372,18.38,40.372z
				 M36.378,21.993v5.767h-2.885v-5.767h-5.779V19.05h5.779v-5.776h2.885v5.776h5.776v2.943H36.378z"/>
			<path class="st2" d="M21.271,29.559c-0.699-0.225-1.47-0.361-2.293-0.37c-3.535-0.038-6.7,2.154-6.7,4.791
				c0,2.692,2.553,4.927,6.088,4.927c4.97,0,6.7-2.102,6.7-4.788c0-0.323-0.04-0.641-0.113-0.95
				C24.566,31.644,23.189,30.891,21.271,29.559z"/>
			<path class="st2" d="M22.845,17.621c-0.41-3.113-2.666-5.614-5.037-5.686c-2.371-0.069-3.962,2.313-3.552,5.432
				c0.41,3.116,2.666,5.701,5.039,5.77C21.664,23.209,23.258,20.74,22.845,17.621z"/>
		</g>
	</g>
</g>
</svg>
