<?xml version="1.0" encoding="utf-8"?>
<!-- Generator: Adobe Illustrator 17.0.0, SVG Export Plug-In . SVG Version: 6.00 Build 0)  -->
<!DOCTYPE svg PUBLIC "-//W3C//DTD SVG 1.1//EN" "http://www.w3.org/Graphics/SVG/1.1/DTD/svg11.dtd">
<svg version="1.1" id="Capa_1" xmlns="http://www.w3.org/2000/svg" xmlns:xlink="http://www.w3.org/1999/xlink" x="0px" y="0px"
	 width="1000px" height="1000px" viewBox="0 0 1000 1000" enable-background="new 0 0 1000 1000" xml:space="preserve">
<g>
	<g>
		<path fill="#F4F4F4" d="M500,0C223.875,0,0,223.875,0,500s223.875,500,500,500s500-223.875,500-500C1000,223.813,776.125,0,500,0z
			 M748.75,387.749l0.374,15.938c0,162.749-123.812,350.25-350.25,350.25c-69.5,0-134.188-20.375-188.687-55.313
			c9.626,1.125,19.437,1.75,29.375,1.75c57.688,0,110.75-19.688,152.875-52.688c-53.874-0.999-99.313-36.625-115-85.499
			c7.562,1.437,15.187,2.126,23.187,2.126c11.25,0,22.124-1.437,32.437-4.25c-56.313-11.376-98.75-61.062-98.75-120.687v-1.563
			c16.624,9.25,35.562,14.749,55.749,15.438c-33-22.062-54.75-59.75-54.75-102.438c0-22.562,6.063-43.687,16.624-61.874
			c60.688,74.5,151.438,123.499,253.75,128.625c-2.126-9.001-3.187-18.438-3.187-28.062c0-67.937,55.124-123.063,123.125-123.063
			c35.375,0,67.376,14.936,89.874,38.874c28-5.563,54.376-15.812,78.188-29.875c-9.188,28.75-28.687,52.875-54.125,68.124
			c24.813-2.938,48.625-9.626,70.688-19.375C793.749,348.811,772.811,370.5,748.75,387.749z"/>
	</g>
</g>
</svg>
