<?xml version="1.0" standalone="no"?>
<!DOCTYPE svg PUBLIC "-//W3C//DTD SVG 1.1//EN" "http://www.w3.org/Graphics/SVG/1.1/DTD/svg11.dtd" >
<svg xmlns="http://www.w3.org/2000/svg">
<metadata></metadata>
<defs>
<font id="citizen_slabregular" horiz-adv-x="1136" >
<font-face units-per-em="2048" ascent="1536" descent="-512" />
<missing-glyph horiz-adv-x="976" />
<glyph horiz-adv-x="0" />
<glyph horiz-adv-x="682" />
<glyph horiz-adv-x="0" />
<glyph horiz-adv-x="0" />
<glyph unicode="&#xd;" horiz-adv-x="976" />
<glyph unicode=" "  horiz-adv-x="976" />
<glyph unicode="&#x09;" horiz-adv-x="976" />
<glyph unicode="&#xa0;" horiz-adv-x="976" />
<glyph unicode="!" horiz-adv-x="653" d="M66 877v260h256v-260l-31 -609h-197zM76 0v176h235v-176h-235z" />
<glyph unicode="&#x22;" horiz-adv-x="712" d="M2 756v446h158v-446h-158zM258 756v446h156v-446h-156z" />
<glyph unicode="#" horiz-adv-x="1536" d="M8 283l49 176h217l60 217h-217l47 178h217l76 283h186l-76 -283h275l76 283h186l-78 -283h234l-50 -178h-231l-59 -217h233l-49 -176h-232l-75 -283h-187l76 283h-274l-76 -283h-186l77 283h-219zM461 459h274l58 217h-275z" />
<glyph unicode="$" horiz-adv-x="1734" d="M0 -4v461h180q0 -123 71 -201t183 -78h195v303h-97q-211 0 -336.5 90.5t-125.5 241.5q0 150 123.5 237t338.5 87h97v192h180v-192h147q94 0 172 -31v94h181v-467h-181q0 95 -17.5 143t-52 64t-102.5 16h-147v-294h121q210 0 335.5 -90.5t125.5 -241.5q0 -152 -124 -241 t-337 -89h-121v-127h-180v127h-195q-141 0 -254 82v-86h-180zM250 813q0 -40 25 -70.5t67.5 -47.5t90 -25t99.5 -8h97v294h-97q-23 0 -48.5 -1.5t-70.5 -9.5t-78.5 -22t-59 -42.5t-25.5 -67.5zM809 178h121q22 0 48 2t70.5 11t78.5 23.5t59.5 45t25.5 70.5t-25.5 70 t-59.5 45t-78.5 24t-70.5 10.5t-48 1.5h-121v-303z" />
<glyph unicode="%" horiz-adv-x="1449" d="M0 889q0 96 69.5 164.5t166.5 68.5t166 -68t69 -165q0 -98 -69 -167t-166 -69t-166.5 69t-69.5 167zM35 0l790 1137h215l-790 -1137h-215zM154 889q0 -34 24 -58t58 -24t57.5 24t23.5 58t-23.5 58t-57.5 24t-58 -24t-24 -58zM614 248q0 97 68.5 166t165.5 69 q98 0 166.5 -69t68.5 -166t-68.5 -166.5t-166.5 -69.5q-97 0 -165.5 69.5t-68.5 166.5zM766 248q0 -34 24 -58t58 -24t58 24t24 58t-24 58t-58 24t-58 -24t-24 -58z" />
<glyph unicode="&#x26;" horiz-adv-x="1906" d="M-14 375v12q0 126 78.5 228t199.5 141q-31 60 -31 127v41q0 117 83 199.5t200 82.5h229q117 0 200 -82.5t83 -199.5v-41q0 -119 -83 -203t-200 -84h-8l432 -307q68 58 74 104q4 40 4 72v27h-186v178h547v-178h-181q0 -84 -6 -123q-14 -94 -96 -179q56 -30 100 -30 q15 0 37.5 10t30.5 12l6 4l6 4l6 5l103 -148l-6 -2q-94 -68 -178 -68q-103 0 -261 95q-75 -43 -156 -67.5t-147 -24.5h-479q-167 0 -284 113t-117 282zM168 377q0 -91 64 -155t155 -64h479q57 0 135 30l-573 408h-41q-91 0 -155 -64t-64 -155zM414 883q0 -58 47 -90 q27 -17 55 -17h229q43 0 74 32t31 75v41q0 42 -31 72t-74 30h-229q-43 0 -72.5 -29.5t-29.5 -72.5v-41z" />
<glyph unicode="'" horiz-adv-x="368" d="M2 756v446h158v-446h-158z" />
<glyph unicode="(" horiz-adv-x="684" d="M2 575q0 244 84 447q80 204 219 340l156 -107q-115 -121 -185 -292q-69 -179 -69 -388q0 -72 20 -204q12 -65 49 -185q43 -98 80 -159q61 -87 105 -131l-156 -109q-54 54 -125 154q-56 84 -94 186q-44 116 -59 211q-25 119 -25 237z" />
<glyph unicode=")" horiz-adv-x="681" d="M2 -104q40 40 104 131q37 61 80 159q39 129 50 185q20 132 20 204q0 206 -70 388q-71 173 -184 292l156 107q139 -136 219 -340q84 -203 84 -447q0 -118 -25 -237q-15 -95 -59 -211q-38 -102 -94 -186q-71 -100 -125 -154z" />
<glyph unicode="*" horiz-adv-x="966" d="M4 821q63 146 221 146q40 0 60 -4q-36 61 -82 61q-11 0 -31 -4l-22 135q18 4 53 4q148 0 223 -176q37 42 37 80q0 23 -23 57l113 80q49 -69 49 -139q0 -79 -65 -162q4 0 11.5 -1t10.5 -1q64 0 86 51l123 -61q-64 -127 -209 -127q-13 0 -59 4q35 -76 86 -76q4 0 10.5 1 t9.5 1l17 -137q-12 -2 -33 -2q-150 0 -228 180q-51 -56 -51 -96q0 -21 17 -47l-117 -74q-39 62 -39 121q0 92 90 190q-32 4 -41 4q-28 0 -47.5 -10.5t-26.5 -21t-16 -31.5z" />
<glyph unicode="+" horiz-adv-x="995" d="M-2 459v166h332v329h164v-329h329v-166h-329v-330h-164v330h-332z" />
<glyph unicode="," horiz-adv-x="456" d="M35 -156v336h178v-176l-61 -160h-117z" />
<glyph unicode="-" d="M0 426v184l772 -4v-180h-772z" />
<glyph unicode="." horiz-adv-x="569" d="M76 0v176h235v-176h-235z" />
<glyph unicode="/" horiz-adv-x="681" d="M31 0l315 1169h156l-314 -1169h-157z" />
<glyph unicode="0" horiz-adv-x="1708" d="M0 463v211q0 192 135.5 327.5t327.5 135.5h487q125 0 231.5 -62t169 -168.5t62.5 -232.5v-211q0 -126 -62.5 -232.5t-169 -168.5t-231.5 -62h-487q-192 0 -327.5 135.5t-135.5 327.5zM180 463q0 -117 83 -200t200 -83h487q117 0 200 83t83 200v211q0 117 -83 199.5 t-200 82.5h-487q-117 0 -200 -82.5t-83 -199.5v-211zM283 313v9q0 82 27.5 143.5t79.5 100t114 61.5t145 37l88 14q61 10 103.5 25t63.5 28t32 32.5t12.5 30t1.5 29.5h180q-2 -63 -22.5 -113t-52.5 -83.5t-80 -59t-97.5 -40.5t-113.5 -27l-88 -17q-68 -13 -113 -28.5 t-65.5 -34.5t-27.5 -36t-7 -40v-22z" />
<glyph unicode="1" horiz-adv-x="1306" d="M0 0v180h389v731q-210 -75 -299 -75v180q12 0 31 4t46 13l51 17t60 22t57 22t59 23t50 20h125v-957h398v-180h-967z" />
<glyph unicode="2" horiz-adv-x="1677" d="M0 0v322l59 22q6 1 208.5 73.5t435.5 157.5t294 111q107 44 134.5 68t27.5 67v8q0 53 -37.5 90t-89.5 37h-831q-9 0 -16 -6.5t-7 -15.5v-117h-178v117q0 85 59 144t142 59h831q127 0 217 -90t90 -218v-8q0 -45 -10 -82.5t-32 -66.5t-43 -49.5t-58.5 -40.5t-61 -31 t-67.5 -29q-107 -45 -889 -325v-17h936q21 0 21 23v116h180v-116q0 -85 -59 -144t-144 -59h-1112z" />
<glyph unicode="3" horiz-adv-x="1622" d="M0 203v116h180v-116q0 -10 7 -16.5t16 -6.5h776q53 0 90 36.5t37 90.5v90q0 53 -37.5 91t-89.5 38h-584v179h584q51 0 89 37.5t38 88.5q0 52 -37 88.5t-90 36.5h-778q-8 0 -14.5 -6.5t-6.5 -15.5v-117h-180v117q0 85 59.5 144t145.5 59h774q126 0 216 -89.5t91 -218.5 q0 -124 -92 -213q92 -92 92 -219v-90q0 -127 -90 -217t-217 -90h-776q-85 0 -144 59t-59 144z" />
<glyph unicode="4" horiz-adv-x="1705" d="M-41 555q45 41 98 101t113.5 141.5t100.5 173t40 166.5h178q0 -243 -262 -559h629v559h180v-559h320v-179h-320v-219h320v-180h-965v180h465v219h-838z" />
<glyph unicode="5" horiz-adv-x="1708" d="M0 203v116h180v-116q0 -10 7 -16.5t16 -6.5h831q53 0 90 36.5t37 90.5v90q0 53 -37.5 90t-89.5 37h-1034v613h1114q88 0 145.5 -59.5t57.5 -143.5v-117h-180v117q0 9 -7 15.5t-16 6.5h-934v-251h854q126 0 215.5 -90.5t89.5 -217.5v-90q0 -127 -89.5 -217t-215.5 -90 h-831q-88 0 -145.5 59.5t-57.5 143.5z" />
<glyph unicode="6" horiz-adv-x="1705" d="M0 389v440q0 128 90 218t217 90h789q85 0 143.5 -59t58.5 -144v-117h-178v117q0 9 -6.5 15.5t-15.5 6.5h-791q-53 0 -90 -37t-37 -90v-120q95 61 217 61h545q165 0 281 -112.5t116 -274.5q0 -158 -116.5 -270.5t-280.5 -112.5h-545q-165 0 -281 113.5t-116 275.5z M180 383q0 -85 63 -144t154 -59h545q91 0 154 59t63 144q0 88 -63 148.5t-154 60.5h-545q-91 0 -154 -60.5t-63 -148.5z" />
<glyph unicode="7" horiz-adv-x="1622" d="M-18 817v117q0 85 59 144t145 59h1141l45 -168q-102 -59 -238.5 -158t-256.5 -213q52 -16 92 -16q56 0 92 51l147 -101q-88 -131 -239 -131q-95 0 -226 56q-119 -145 -155 -277h311v-180h-827v180h331q32 170 172 350q-56 19 -98 19q-29 0 -49.5 -10.5t-30 -22.5 t-20.5 -33l-156 90q93 156 256 156q94 0 223 -55q141 147 330 282h-848q-8 0 -14 -6.5t-6 -15.5v-117h-180z" />
<glyph unicode="8" horiz-adv-x="1564" d="M-20 348v25q0 138 100 243q-31 67 -31 144q0 155 111 266t266 111h383q155 0 266 -111t111 -266q0 -77 -31 -144q100 -105 100 -243v-25q0 -145 -102.5 -246.5t-247.5 -101.5h-575q-145 0 -247.5 101.5t-102.5 246.5zM160 348q0 -69 50 -118.5t120 -49.5h575 q70 0 120 49.5t50 118.5v25q0 54 -37 104q-99 -71 -229 -71h-383q-133 0 -229 71q-37 -46 -37 -104v-25zM229 760q0 -83 59.5 -128.5t137.5 -45.5h383q78 0 137.5 45.5t59.5 128.5q0 82 -57.5 139t-139.5 57h-383q-82 0 -139.5 -57t-57.5 -139z" />
<glyph unicode="9" horiz-adv-x="1648" d="M-20 748q0 164 115 276.5t282 112.5h545q166 0 280.5 -112.5t114.5 -276.5v-437q0 -126 -90.5 -218.5t-214.5 -92.5h-789q-85 0 -144 59t-59 144v116h179v-116q0 -10 6.5 -16.5t15.5 -6.5h791q51 0 89 38.5t38 92.5v107q-101 -66 -217 -66h-545q-164 0 -280.5 116.5 t-116.5 279.5zM160 748q0 -90 63.5 -154t153.5 -64h545q89 0 153 64.5t64 153.5q0 88 -63 148t-154 60h-545q-92 0 -154.5 -60t-62.5 -148z" />
<glyph unicode=":" horiz-adv-x="512" d="M20 -2v176h179v-176h-179zM20 432v178h179v-178h-179z" />
<glyph unicode=";" horiz-adv-x="569" d="M35 -156v336h178v-176l-61 -160h-117zM35 430v178h178v-178h-178z" />
<glyph unicode="&#x3c;" horiz-adv-x="966" d="M12 563l531 529l139 -121l-408 -408l408 -409l-139 -119z" />
<glyph unicode="=" horiz-adv-x="1280" d="M0 246v157h934v-157h-934zM0 563v156h934v-156h-934z" />
<glyph unicode="&#x3e;" horiz-adv-x="966" d="M53 154l408 409l-408 408l140 121l530 -529l-530 -528z" />
<glyph unicode="?" horiz-adv-x="1366" d="M0 817v117q0 85 59 144t142 59h4h620q124 0 213 -87t92 -210v-6v-5v-4q-3 -124 -91.5 -210.5t-213.5 -86.5h-215q-112 0 -151 -39q-22 -22 -28.5 -67.5t-6.5 -124.5v-29h-180v27q0 54 1.5 82t8.5 78.5t26 89.5t50 71q91 91 280 91h215q52 0 88.5 35.5t38.5 88.5 q-2 53 -38.5 89t-88.5 36h-622h-2q-9 0 -16 -6.5t-7 -15.5v-117h-178zM246 0v176h176v-176h-176z" />
<glyph unicode="@" horiz-adv-x="1820" d="M2 461v211q0 126 62.5 232.5t169 168.5t231.5 62h487q192 0 327.5 -135.5t135.5 -327.5v-379h-561v129h90l-51 74h-369l-49 -74h88v-129h-325q39 -54 99 -85.5t128 -31.5h641v-178h-641q-125 0 -231.5 62t-169 168.5t-62.5 232.5zM182 461q0 -7 1 -20t1 -19h131l340 489 h107l340 -489h135v250q0 117 -83.5 199.5t-201.5 82.5h-487q-117 0 -200 -82.5t-83 -199.5v-211zM614 625h189l-94 135z" />
<glyph unicode="A" horiz-adv-x="2523" d="M0 0v180h369l563 778h-217v179h784v-179h-217l565 -778h367v-180h-828v180h238l-147 205h-740l-147 -205h237v-180h-827zM868 563h480l-240 332z" />
<glyph unicode="B" horiz-adv-x="2076" d="M0 0v180h340v778h-340v179h1190q144 0 246 -101.5t102 -244.5v-80q133 -25 209 -118t76 -233q0 -167 -102 -263.5t-277 -96.5h-1444zM520 180h924q56 0 96.5 15.5t59.5 34t29.5 48.5t11.5 45t1 37q0 21 -1 36t-11.5 44.5t-29.5 48.5t-59.5 34.5t-96.5 15.5h-924v-359z M520 719h838v72q0 69 -49.5 118t-118.5 49h-670v-239z" />
<glyph unicode="C" horiz-adv-x="2019" d="M0 465v201q0 126 63 234.5t170 172.5t230 64h801q140 0 249 -76v139h181v-506h-181q0 120 -67.5 192t-181.5 72h-801q-116 0 -199.5 -87t-83.5 -207v-203q0 -117 81 -199t198 -82h798q79 0 147 41.5t105 112.5l160 -84q-60 -116 -171 -183t-241 -67h-798q-191 0 -325 137 t-134 328z" />
<glyph unicode="D" horiz-adv-x="2134" d="M0 0v180h340v778h-340v179h1380q190 0 325.5 -135.5t135.5 -325.5v-213q0 -125 -62 -231.5t-168 -169t-231 -62.5h-1380zM520 180h860q117 0 200 83t83 200v213q0 117 -83 199.5t-200 82.5h-860v-778z" />
<glyph unicode="E" horiz-adv-x="2185" d="M0 0v180h346v778h-346v179h1645q85 0 143.5 -58.5t58.5 -142.5v-119h-180v119q0 9 -6.5 15.5t-15.5 6.5h-1121v-315h631v107h180v-369h-180v82h-631v-283h1123q8 0 14 7t6 16v116h180v-116q0 -84 -59.5 -143.5t-145.5 -59.5h-1642z" />
<glyph unicode="F" horiz-adv-x="2076" d="M0 0v180h348v778h-348v179h1645q85 0 144.5 -59t59.5 -142v-119h-180v119q0 9 -6.5 15.5t-15.5 6.5h-1121v-333h691v94h180v-369h-180v96h-691v-266h500v-180h-1026z" />
<glyph unicode="G" horiz-adv-x="2048" d="M0 463v217q0 124 62.5 229.5t169 166.5t231.5 61h801q141 0 256 -78v141h178v-506h-178q0 119 -70.5 191.5t-185.5 72.5h-801q-117 0 -200 -81.5t-83 -196.5v-217q0 -117 83 -200t200 -83h801q72 0 143.5 42t112.5 108v96h-670v180h758q38 0 64 -26.5t26 -63.5v-518h-178 v82q-127 -80 -256 -80h-801q-125 0 -231.5 62.5t-169 169t-62.5 231.5z" />
<glyph unicode="H" horiz-adv-x="2418" d="M0 0v180h324v778h-324v179h827v-179h-323v-319h1055v319h-324v179h827v-179h-323v-778h323v-180h-827v180h324v279h-1055v-279h323v-180h-827z" />
<glyph unicode="I" horiz-adv-x="1421" d="M0 0v180h463v778h-463v179h1104v-179h-461v-778h461v-180h-1104z" />
<glyph unicode="J" horiz-adv-x="1792" d="M2 254l152 96q62 -98 161.5 -153.5t214.5 -55.5q122 0 225 60t162.5 163t59.5 224v370h-549q-9 0 -15.5 -6.5t-6.5 -15.5v-119h-181v119q0 83 60 142t143 59h1036v-179h-307v-370q0 -170 -84 -314.5t-228.5 -228.5t-314.5 -84q-161 0 -301.5 78t-226.5 215z" />
<glyph unicode="K" horiz-adv-x="2275" d="M0 0v180h324v778h-324v179h827v-179h-323v-409l700 409h-176v179h827v-179h-319q-10 -14 -35 -34l-4 -2l-2 -2q-5 -5 -8 -5l-414 -241q92 -153 160.5 -256t110.5 -158t77 -82t53 -32t46 -5q96 0 290 117l93 -154q-72 -43 -122 -69t-124.5 -50t-140.5 -24q-190 0 -332 217 l-264 406l-416 -244v-160h323v-180h-827z" />
<glyph unicode="L" horiz-adv-x="2162" d="M0 0v180h330v778h-324v179h828v-179h-324v-778h1143q9 0 15.5 7t6.5 16v116h178v-116q0 -85 -58.5 -144t-141.5 -59h-1653z" />
<glyph unicode="M" horiz-adv-x="2873" d="M0 0v180h324v778h-324v179h446l799 -697l797 697h446v-179h-323v-778h323v-180h-827v180h326v670l-742 -647l-743 647v-670h323v-180h-825z" />
<glyph unicode="N" horiz-adv-x="2473" d="M0 0v180h324v778h-324v179h827v-179h-202l934 -473v473h-324v179h827v-179h-323v-778h323v-180h-827v180h324v105l-1055 534v-639h323v-180h-827z" />
<glyph unicode="O" horiz-adv-x="2048" d="M0 479v197q0 125 62 231t168 168t231 62h801q126 0 232.5 -62t168 -168t61.5 -231v-197q0 -128 -62.5 -238.5t-169 -175.5t-230.5 -65h-801q-123 0 -229.5 65t-169 175.5t-62.5 238.5zM178 479q0 -120 85 -209.5t198 -89.5h801q114 0 198 89.5t84 209.5v197 q0 117 -82.5 199.5t-199.5 82.5h-801q-117 0 -200 -82.5t-83 -199.5v-197z" />
<glyph unicode="P" horiz-adv-x="2246" d="M0 0v178h348v778h-348v181h1573q126 0 215.5 -91t89.5 -217v-120q0 -126 -89.5 -216t-215.5 -90h-1047v-225h500v-178h-1026zM526 582h1047q53 0 90 37t37 90v120q0 53 -37 90t-90 37h-1047v-374z" />
<glyph unicode="Q" horiz-adv-x="2134" d="M0 477v197q0 125 62 231.5t168.5 169t232.5 62.5h801q190 0 325 -136t135 -327v-197q0 -133 -63.5 -245t-169.5 -173l172 -172l-127 -127l-240 240h-823q-93 0 -180 39t-151 104t-103 153t-39 181zM180 477q0 -117 89 -208t204 -91h645l-170 170l127 127l281 -280 q83 30 136.5 107.5t53.5 174.5v197q0 117 -82.5 199.5t-199.5 82.5h-801q-117 0 -200 -82.5t-83 -199.5v-197z" />
<glyph unicode="R" horiz-adv-x="2416" d="M0 0v178h348v778h-348v181h1573q129 0 217 -87.5t88 -213.5v-119q0 -127 -89.5 -217t-215.5 -90h-113l82 -134q58 -69 93.5 -94.5t88.5 -25.5q99 0 291 116l92 -153q-107 -67 -199 -105.5t-186 -38.5q-187 0 -331 218l-146 217h-719v-232h500v-178h-1026zM526 590h1047 q53 0 90 36.5t37 90.5v119q0 51 -37 85.5t-90 34.5h-1047v-366z" />
<glyph unicode="S" horiz-adv-x="1992" d="M0 -4v459h178q0 -122 72 -199.5t184 -77.5h801q22 0 48.5 2t71 11t78.5 23.5t59.5 45t25.5 70.5t-25.5 70t-59.5 45t-79 24t-71 10.5t-48 1.5h-705q-211 0 -335.5 90t-124.5 242q0 150 123.5 237t336.5 87h732q96 0 174 -33v96h178v-467h-178q0 95 -17.5 143t-52.5 64 t-104 16h-732q-23 0 -48.5 -1.5t-70.5 -9.5t-78.5 -22t-59 -42.5t-25.5 -67.5q0 -53 45 -89.5t106 -50.5t131 -14h705q211 0 337 -89t126 -240q0 -153 -124.5 -241.5t-338.5 -88.5h-801q-145 0 -256 82v-86h-178z" />
<glyph unicode="T" horiz-adv-x="1961" d="M0 817v117q0 83 60 143t143 60h1272q83 0 141.5 -59.5t58.5 -143.5v-117h-178v117q0 9 -6.5 15.5t-15.5 6.5h-547v-778h323v-178h-827v178h326v778h-547q-9 0 -16 -6.5t-7 -15.5v-117h-180z" />
<glyph unicode="U" horiz-adv-x="2246" d="M0 956v181h827v-181h-325v-495q0 -117 83 -200t201 -83h385q117 0 200 83t83 200v495h-324v181h828v-181h-324v-495q0 -125 -62 -231t-168.5 -168t-232.5 -62h-385q-126 0 -232.5 62t-168 168t-61.5 231v495h-324z" />
<glyph unicode="V" horiz-adv-x="2502" d="M0 956v181h827v-181h-237l518 -714l518 714h-237v181h825v-181h-367l-563 -778h189v-178h-730v178h189l-563 778h-369z" />
<glyph unicode="W" horiz-adv-x="3072" d="M0 956v181h827v-181h-305l398 -686l397 686h-270v181h606v-181h-129l-68 -116l301 -566l393 682h-303v181h828v-181h-316l-448 -776h137v-180h-606v180h164l-256 477l-275 -477h158v-180h-606v180h137l-449 776h-315z" />
<glyph unicode="X" horiz-adv-x="2248" d="M0 0v180h381l450 387l-450 389h-381v181h827v-181h-172l314 -270l313 270h-172v181h827v-181h-381l-450 -389l450 -387h381v-180h-827v180h172l-313 271l-314 -271h172v-180h-827z" />
<glyph unicode="Y" horiz-adv-x="2246" d="M0 956v181h827v-181h-206l348 -370l348 370h-207v181h827v-181h-374l-504 -536v-240h323v-180h-827v180h324v240l-504 536h-375z" />
<glyph unicode="Z" horiz-adv-x="2160" d="M0 0v270l698 330q-56 51 -100 51q-29 0 -72 -26l-94 151q80 53 168 53q135 0 270 -147l584 274h-1253q-9 0 -16 -6.5t-7 -15.5v-117h-178v117q0 85 59 144t142 59h1521v-252l-737 -346q97 -115 162 -115q23 0 55 18l86 -157q-72 -41 -143 -41q-155 0 -316 202l-10 13 l-592 -279h1309q9 0 16 6t7 15v118h178v-118q0 -83 -59 -142t-142 -59h-1536z" />
<glyph unicode="[" horiz-adv-x="796" d="M0 -236v1651h451v-192h-281v-1266h281v-193h-451z" />
<glyph unicode="\" horiz-adv-x="909" d="M10 1200h174l353 -1282h-179z" />
<glyph unicode="]" horiz-adv-x="911" d="M41 -43h281v1266h-281v192h451v-1651h-451v193z" />
<glyph unicode="_" horiz-adv-x="1449" d="M0 -41h1178v-184h-1178v184z" />
<glyph unicode="a" horiz-adv-x="2523" d="M0 0v180h369l563 778h-217v179h784v-179h-217l565 -778h367v-180h-828v180h238l-147 205h-740l-147 -205h237v-180h-827zM868 563h480l-240 332z" />
<glyph unicode="b" horiz-adv-x="2076" d="M0 0v180h340v778h-340v179h1190q144 0 246 -101.5t102 -244.5v-80q133 -25 209 -118t76 -233q0 -167 -102 -263.5t-277 -96.5h-1444zM520 180h924q56 0 96.5 15.5t59.5 34t29.5 48.5t11.5 45t1 37q0 21 -1 36t-11.5 44.5t-29.5 48.5t-59.5 34.5t-96.5 15.5h-924v-359z M520 719h838v72q0 69 -49.5 118t-118.5 49h-670v-239z" />
<glyph unicode="c" horiz-adv-x="2019" d="M0 465v201q0 126 63 234.5t170 172.5t230 64h801q140 0 249 -76v139h181v-506h-181q0 120 -67.5 192t-181.5 72h-801q-116 0 -199.5 -87t-83.5 -207v-203q0 -117 81 -199t198 -82h798q79 0 147 41.5t105 112.5l160 -84q-60 -116 -171 -183t-241 -67h-798q-191 0 -325 137 t-134 328z" />
<glyph unicode="d" horiz-adv-x="2134" d="M0 0v180h340v778h-340v179h1380q190 0 325.5 -135.5t135.5 -325.5v-213q0 -125 -62 -231.5t-168 -169t-231 -62.5h-1380zM520 180h860q117 0 200 83t83 200v213q0 117 -83 199.5t-200 82.5h-860v-778z" />
<glyph unicode="e" horiz-adv-x="2189" d="M0 0v180h346v778h-346v179h1645q85 0 143.5 -58.5t58.5 -142.5v-119h-180v119q0 9 -6.5 15.5t-15.5 6.5h-1121v-315h631v107h180v-369h-180v82h-631v-283h1123q8 0 14 7t6 16v116h180v-116q0 -84 -59.5 -143.5t-145.5 -59.5h-1642z" />
<glyph unicode="f" horiz-adv-x="2076" d="M0 0v180h348v778h-348v179h1645q85 0 144.5 -59t59.5 -142v-119h-180v119q0 9 -6.5 15.5t-15.5 6.5h-1121v-333h691v94h180v-369h-180v96h-691v-266h500v-180h-1026z" />
<glyph unicode="g" horiz-adv-x="2048" d="M0 463v217q0 124 62.5 229.5t169 166.5t231.5 61h801q141 0 256 -78v141h178v-506h-178q0 119 -70.5 191.5t-185.5 72.5h-801q-117 0 -200 -81.5t-83 -196.5v-217q0 -117 83 -200t200 -83h801q72 0 143.5 42t112.5 108v96h-670v180h758q38 0 64 -26.5t26 -63.5v-518h-178 v82q-127 -80 -256 -80h-801q-125 0 -231.5 62.5t-169 169t-62.5 231.5z" />
<glyph unicode="h" horiz-adv-x="2418" d="M0 0v180h324v778h-324v179h827v-179h-323v-319h1055v319h-324v179h827v-179h-323v-778h323v-180h-827v180h324v279h-1055v-279h323v-180h-827z" />
<glyph unicode="i" horiz-adv-x="1421" d="M0 0v180h463v778h-463v179h1104v-179h-461v-778h461v-180h-1104z" />
<glyph unicode="j" horiz-adv-x="1792" d="M2 254l152 96q62 -98 161.5 -153.5t214.5 -55.5q122 0 225 60t162.5 163t59.5 224v370h-549q-9 0 -15.5 -6.5t-6.5 -15.5v-119h-181v119q0 83 60 142t143 59h1036v-179h-307v-370q0 -170 -84 -314.5t-228.5 -228.5t-314.5 -84q-161 0 -301.5 78t-226.5 215z" />
<glyph unicode="k" horiz-adv-x="2275" d="M0 0v180h324v778h-324v179h827v-179h-323v-409l700 409h-176v179h827v-179h-319q-10 -14 -35 -34l-4 -2l-2 -2q-5 -5 -8 -5l-414 -241q92 -153 160.5 -256t110.5 -158t77 -82t53 -32t46 -5q96 0 290 117l93 -154q-72 -43 -122 -69t-124.5 -50t-140.5 -24q-190 0 -332 217 l-264 406l-416 -244v-160h323v-180h-827z" />
<glyph unicode="l" horiz-adv-x="2162" d="M0 0v180h330v778h-324v179h828v-179h-324v-778h1143q9 0 15.5 7t6.5 16v116h178v-116q0 -85 -58.5 -144t-141.5 -59h-1653z" />
<glyph unicode="m" horiz-adv-x="2873" d="M0 0v180h324v778h-324v179h446l799 -697l797 697h446v-179h-323v-778h323v-180h-827v180h326v670l-742 -647l-743 647v-670h323v-180h-825z" />
<glyph unicode="n" horiz-adv-x="2473" d="M0 0v180h324v778h-324v179h827v-179h-202l934 -473v473h-324v179h827v-179h-323v-778h323v-180h-827v180h324v105l-1055 534v-639h323v-180h-827z" />
<glyph unicode="o" horiz-adv-x="2048" d="M0 479v197q0 125 62 231t168 168t231 62h801q126 0 232.5 -62t168 -168t61.5 -231v-197q0 -128 -62.5 -238.5t-169 -175.5t-230.5 -65h-801q-123 0 -229.5 65t-169 175.5t-62.5 238.5zM178 479q0 -120 85 -209.5t198 -89.5h801q114 0 198 89.5t84 209.5v197 q0 117 -82.5 199.5t-199.5 82.5h-801q-117 0 -200 -82.5t-83 -199.5v-197z" />
<glyph unicode="p" horiz-adv-x="2246" d="M0 0v178h348v778h-348v181h1573q126 0 215.5 -91t89.5 -217v-120q0 -126 -89.5 -216t-215.5 -90h-1047v-225h500v-178h-1026zM526 582h1047q53 0 90 37t37 90v120q0 53 -37 90t-90 37h-1047v-374z" />
<glyph unicode="q" horiz-adv-x="2134" d="M0 477v197q0 125 62 231.5t168.5 169t232.5 62.5h801q190 0 325 -136t135 -327v-197q0 -133 -63.5 -245t-169.5 -173l172 -172l-127 -127l-240 240h-823q-93 0 -180 39t-151 104t-103 153t-39 181zM180 477q0 -117 89 -208t204 -91h645l-170 170l127 127l281 -280 q83 30 136.5 107.5t53.5 174.5v197q0 117 -82.5 199.5t-199.5 82.5h-801q-117 0 -200 -82.5t-83 -199.5v-197z" />
<glyph unicode="r" horiz-adv-x="2416" d="M0 0v178h348v778h-348v181h1573q129 0 217 -87.5t88 -213.5v-119q0 -127 -89.5 -217t-215.5 -90h-113l82 -134q58 -69 93.5 -94.5t88.5 -25.5q99 0 291 116l92 -153q-107 -67 -199 -105.5t-186 -38.5q-187 0 -331 218l-146 217h-719v-232h500v-178h-1026zM526 590h1047 q53 0 90 36.5t37 90.5v119q0 51 -37 85.5t-90 34.5h-1047v-366z" />
<glyph unicode="s" horiz-adv-x="1992" d="M0 -4v459h178q0 -122 72 -199.5t184 -77.5h801q22 0 48.5 2t71 11t78.5 23.5t59.5 45t25.5 70.5t-25.5 70t-59.5 45t-79 24t-71 10.5t-48 1.5h-705q-211 0 -335.5 90t-124.5 242q0 150 123.5 237t336.5 87h732q96 0 174 -33v96h178v-467h-178q0 95 -17.5 143t-52.5 64 t-104 16h-732q-23 0 -48.5 -1.5t-70.5 -9.5t-78.5 -22t-59 -42.5t-25.5 -67.5q0 -53 45 -89.5t106 -50.5t131 -14h705q211 0 337 -89t126 -240q0 -153 -124.5 -241.5t-338.5 -88.5h-801q-145 0 -256 82v-86h-178z" />
<glyph unicode="t" horiz-adv-x="1961" d="M0 817v117q0 83 60 143t143 60h1272q83 0 141.5 -59.5t58.5 -143.5v-117h-178v117q0 9 -6.5 15.5t-15.5 6.5h-547v-778h323v-178h-827v178h326v778h-547q-9 0 -16 -6.5t-7 -15.5v-117h-180z" />
<glyph unicode="u" horiz-adv-x="2246" d="M0 956v181h827v-181h-325v-495q0 -117 83 -200t201 -83h385q117 0 200 83t83 200v495h-324v181h828v-181h-324v-495q0 -125 -62 -231t-168.5 -168t-232.5 -62h-385q-126 0 -232.5 62t-168 168t-61.5 231v495h-324z" />
<glyph unicode="v" horiz-adv-x="2502" d="M0 956v181h827v-181h-237l518 -714l518 714h-237v181h825v-181h-367l-563 -778h189v-178h-730v178h189l-563 778h-369z" />
<glyph unicode="w" horiz-adv-x="3072" d="M0 956v181h827v-181h-305l398 -686l397 686h-270v181h606v-181h-129l-68 -116l301 -566l393 682h-303v181h828v-181h-316l-448 -776h137v-180h-606v180h164l-256 477l-275 -477h158v-180h-606v180h137l-449 776h-315z" />
<glyph unicode="x" horiz-adv-x="2248" d="M0 0v180h381l450 387l-450 389h-381v181h827v-181h-172l314 -270l313 270h-172v181h827v-181h-381l-450 -389l450 -387h381v-180h-827v180h172l-313 271l-314 -271h172v-180h-827z" />
<glyph unicode="y" horiz-adv-x="2246" d="M0 956v181h827v-181h-206l348 -370l348 370h-207v181h827v-181h-374l-504 -536v-240h323v-180h-827v180h324v240l-504 536h-375z" />
<glyph unicode="z" horiz-adv-x="2160" d="M0 0v270l698 330q-56 51 -100 51q-29 0 -72 -26l-94 151q80 53 168 53q135 0 270 -147l584 274h-1253q-9 0 -16 -6.5t-7 -15.5v-117h-178v117q0 85 59 144t142 59h1521v-252l-737 -346q97 -115 162 -115q23 0 55 18l86 -157q-72 -41 -143 -41q-155 0 -316 202l-10 13 l-592 -279h1309q9 0 16 6t7 15v118h178v-118q0 -83 -59 -142t-142 -59h-1536z" />
<glyph unicode="{" horiz-adv-x="796" d="M68 508v166q93 53 124 92t31 100v178q0 141 99 239.5t239 98.5v-194q-58 0 -100.5 -42.5t-42.5 -101.5v-178q0 -170 -129 -276q129 -106 129 -277v-176q0 -60 42 -101.5t101 -41.5v-197q-140 0 -239 99.5t-99 240.5v176q0 62 -31 102t-124 93z" />
<glyph unicode="|" horiz-adv-x="681" d="M211 -229v1634h174v-1634h-174z" />
<glyph unicode="}" horiz-adv-x="882" d="M68 -6q59 0 101 41.5t42 101.5v176q0 171 129 277q-129 106 -129 276v178q0 59 -42.5 101.5t-100.5 42.5v194q140 0 239 -98.5t99 -239.5v-178q0 -61 31 -100t124 -92v-166q-93 -53 -124 -93t-31 -102v-176q0 -141 -99 -240.5t-239 -99.5v197z" />
<glyph unicode="~" d="M2 434q58 121 166 158q51 14 94 14q66 0 146 -26.5t157 -53t135 -26.5q32 0 54 10.5t31 21.5t18 29l151 -82q-82 -149 -252 -149q-79 0 -204 41l-84 30q-89 31 -148 31q-34 0 -56.5 -12t-32 -25.5t-19.5 -36.5z" />
<glyph unicode="&#xa1;" horiz-adv-x="655" d="M66 0v260l28 608h197l31 -608v-260h-256zM76 961v176h235v-176h-235z" />
<glyph unicode="&#xa9;" horiz-adv-x="1449" d="M0 547q0 112 42 214.5t120 180.5q79 79 181.5 121.5t215.5 42.5q231 0 395 -164q78 -78 121 -180.5t43 -214.5t-42.5 -213t-121.5 -180q-166 -166 -395 -166q-112 0 -214.5 43t-180.5 121q-164 164 -164 395zM147 547q0 -170 121 -291t291 -121t291 121t121 291 t-121 290.5t-291 120.5t-291 -120.5t-121 -290.5zM250 506v69q0 77 55 132q54 57 129 57h240q27 0 67 -14v36h21h84v-221h-105v21q0 33 -18 52t-49 19h-240q-31 0 -55.5 -24.5t-24.5 -59.5v-69q0 -32 24 -55t56 -23h238q47 0 69 43l11 18l94 -49l-10 -18 q-25 -46 -68.5 -73.5t-95.5 -27.5h-238q-76 0 -129 54.5t-55 132.5z" />
<glyph unicode="&#xab;" horiz-adv-x="1478" d="M-16 524l524 525h235l-524 -525l526 -524h-235zM381 524l524 525h236l-525 -525l527 -524h-236z" />
<glyph unicode="&#xad;" d="M0 426v184l772 -4v-180h-772z" />
<glyph unicode="&#xae;" horiz-adv-x="1337" d="M0 543q0 112 43 214.5t121 180.5q164 164 395 164q113 0 215 -42.5t180 -121.5q79 -78 121.5 -180t42.5 -215q0 -232 -164 -396q-78 -78 -180.5 -120.5t-214.5 -42.5t-213.5 42.5t-179.5 120.5q-80 80 -123 182t-43 214zM147 543q0 -57 21 -113h98v225h-102 q-17 -63 -17 -112zM209 328q55 -90 148.5 -143.5t201.5 -53.5q170 0 291 121t121 291t-121 290.5t-291 120.5q-108 0 -201.5 -53.5t-148.5 -142.5h496q52 0 88 -36t36 -87v-41q0 -52 -36.5 -88.5t-87.5 -36.5l6 -12q22 -35 45 -35q27 0 88 37l18 10l53 -86l-18 -12 q-85 -52 -141 -52q-36 0 -74 23q-33 20 -57 61l-43 66h-213v-39h170v-102h-330zM369 569h336q9 0 15.5 8t6.5 17v41q0 8 -6.5 14t-15.5 6h-336v-86z" />
<glyph unicode="&#xb6;" horiz-adv-x="1394" d="M4 813v113q0 112 80 192t192 80h744v-1198h-178v1020h-219v-1020h-181v541h-166q-112 0 -192 79.5t-80 192.5z" />
<glyph unicode="&#xbb;" horiz-adv-x="1449" d="M-16 0l526 524l-524 525h235l524 -525l-526 -524h-235zM381 0l526 524l-524 525h235l525 -525l-527 -524h-235z" />
<glyph unicode="&#xbc;" horiz-adv-x="1961" d="M0 518v144h176v319q-97 -29 -129 -29v144q31 0 133 41h139v-475h183v-144h-502zM412 41l528 1059h158l-525 -1059h-161zM846 334q54 47 115 131.5t61 150.5h143q0 -116 -110 -264h250v264h143v-264h141v-143h-141v-64h141v-145h-502v145h218v64h-410z" />
<glyph unicode="&#xbd;" horiz-adv-x="2105" d="M0 518v144h178v319q-97 -29 -131 -29v144q31 0 133 41h142v-475h180v-144h-502zM414 41l526 1059h160l-527 -1059h-159zM932 0v211l49 16q1 1 107 39.5t226.5 82.5t151.5 57q49 20 59.5 29t10.5 22q0 17 -12 29t-29 12h-420v-47h-143v61q0 54 38.5 92.5t92.5 38.5h432 q77 0 130.5 -55.5t53.5 -134.5q0 -40 -13 -70.5t-40.5 -52t-47 -32t-56.5 -26.5q-89 -36 -351 -127h353v48h143v-62q0 -54 -38.5 -92.5t-92.5 -38.5h-604z" />
<glyph unicode="&#xbe;" horiz-adv-x="2134" d="M0 629v61h143v-47h389q17 0 30 12t13 29v47q0 17 -13 29t-30 12h-303v143h303q17 0 29 12t14 29q-2 17 -14 29t-29 12h-389v-49h-143v62q0 54 37.5 92.5t91.5 38.5h403q75 0 129.5 -52t57.5 -126v-11q-3 -59 -39 -108q39 -48 39 -113v-47q0 -76 -55 -130t-132 -54h-403 q-54 0 -91.5 37.5t-37.5 91.5zM506 41l526 1059h160l-524 -1059h-162zM940 334q55 50 115.5 133.5t60.5 148.5h144q0 -115 -111 -264h250v264h143v-264h141v-143h-141v-64h141v-145h-501v145h217v64h-410z" />
<glyph unicode="&#xbf;" horiz-adv-x="1478" d="M0 203v116h178v-116q0 -9 7 -16t16 -7h2h622q52 0 88.5 36t38.5 89q-2 53 -38.5 89t-88.5 36h-215q-190 0 -280 90q-31 32 -50 71.5t-26 90t-8.5 78.5t-1.5 82v26h180v-28q0 -79 6.5 -125t28.5 -68q39 -39 151 -39h215q125 0 213.5 -86.5t91.5 -210.5v-4v-4v-6 q-3 -123 -92 -210t-213 -87h-620h-4q-83 0 -142 59t-59 144zM246 961v176h176v-176h-176z" />
<glyph unicode="&#xc0;" horiz-adv-x="2387" d="M0 0v180h367l565 778h-217v179h784v-179h-217l563 -778h369v-180h-828v180h238l-147 205h-740l-147 -205h237v-180h-827zM819 1458l205 119l369 -240l-68 -96zM866 563h480l-240 332z" />
<glyph unicode="&#xc1;" horiz-adv-x="2387" d="M0 0v180h369l563 778h-215v179h782v-179h-215l563 -778h367v-180h-828v180h240l-149 205h-738l-149 -205h237v-180h-827zM821 1337l369 240l205 -119l-506 -217zM868 563h480l-240 332z" />
<glyph unicode="&#xc2;" horiz-adv-x="2381" d="M0 0v180h367l565 778h-217v179h784v-179h-217l563 -778h369v-180h-828v180h238l-147 205h-740l-147 -205h237v-180h-827zM737 1372l369 242l371 -242l-93 -125l-278 180l-277 -180zM868 563h478l-240 332z" />
<glyph unicode="&#xc3;" horiz-adv-x="2387" d="M0 0v180h369l563 778h-217v179h784v-179h-217l565 -778h367v-180h-828v180h238l-147 205h-740l-147 -205h237v-180h-827zM678 1384l14 31q54 105 148 135q89 30 262 -28q10 -4 30.5 -12.5t36 -14.5t39 -14t39.5 -11t38 -4.5t34 4.5q16 4 29.5 20t46.5 66l137 -90l-25 -39 q-68 -122 -213 -122q-65 0 -187 46t-189 46q-49 0 -78 -56l-17 -30zM868 563h480l-240 332z" />
<glyph unicode="&#xc4;" horiz-adv-x="2387" d="M0 0v180h369l563 778h-215v179h782v-179h-215l563 -778h367v-180h-828v180h240l-149 205h-740l-147 -205h237v-180h-827zM825 1430q0 49 33.5 82.5t83.5 33.5q48 0 82.5 -33.5t34.5 -82.5q0 -47 -35 -82t-82 -35q-49 0 -83 34.5t-34 82.5zM868 563h480l-240 332z M1157 1430q0 49 33.5 82.5t83.5 33.5q48 0 82.5 -33.5t34.5 -82.5q0 -47 -35 -82t-82 -35q-49 0 -83 34.5t-34 82.5z" />
<glyph unicode="&#xc5;" horiz-adv-x="2457" d="M0 0v180h367l563 778h-215v179h782v-179h-215l563 -778h369v-180h-828v180h238l-147 205h-740l-149 -205h239v-180h-827zM866 563h480l-240 332zM891 1430q0 89 63 152t152 63t152 -63t63 -152t-63 -152.5t-152 -63.5t-152 63.5t-63 152.5zM989 1430q0 -47 35 -82t82 -35 q49 0 83 34.5t34 82.5q0 49 -33.5 82.5t-83.5 33.5q-48 0 -82.5 -33.5t-34.5 -82.5z" />
<glyph unicode="&#xc6;" horiz-adv-x="3125" d="M0 0v180h375l688 778h-348v179h1992q85 0 145 -59t60 -142v-119h-180v119q0 9 -6.5 15.5t-15.5 6.5h-1121v-315h631v107h178v-369h-178v82h-631v-283h1118q10 0 17.5 7t7.5 16v116h180v-116q0 -83 -59.5 -143t-142.5 -60h-1586v180h287v283h-547l-250 -283h213v-180h-827 zM1024 643h387v315h-108z" />
<glyph unicode="&#xc7;" horiz-adv-x="2048" d="M-2 444v222q2 192 139 331.5t324 139.5h801q140 0 249 -76v139h181v-506h-181q0 120 -67.5 192t-181.5 72h-801q-116 0 -201.5 -86t-85.5 -204v-205q0 -117 83 -200t200 -83h800q78 0 145.5 41.5t104.5 112.5l160 -84q-60 -115 -170.5 -182.5t-239.5 -67.5h-262l-57 -86 h25q95 0 162 -67t67 -162v-84q0 -94 -67 -162t-162 -68h-351v180h351q21 0 36 14.5t15 35.5v84q0 20 -14.5 34.5t-36.5 14.5h-193l-74 139l84 127h-327q-122 0 -227 60.5t-166.5 163t-61.5 220.5z" />
<glyph unicode="&#xc8;" horiz-adv-x="2027" d="M0 0v178h348v778h-348v181h1645q85 0 143.5 -59t58.5 -144v-117h-178v117q0 9 -6.5 15.5t-15.5 6.5h-1121v-315h631v109h178v-369h-178v82h-631v-285h1121q9 0 15.5 7t6.5 16v118h178v-118q0 -83 -58.5 -142t-143.5 -59h-1645zM637 1483l205 119l368 -240l-67 -96z" />
<glyph unicode="&#xc9;" horiz-adv-x="2056" d="M0 0v178h346v778h-346v181h1645q85 0 143.5 -59t58.5 -144v-117h-180v117q0 9 -6.5 15.5t-15.5 6.5h-1119v-315h629v109h180v-369h-180v82h-629v-285h1121q8 0 14 7t6 16v118h180v-118q0 -84 -59.5 -142.5t-145.5 -58.5h-1642zM637 1362l369 240l204 -119l-505 -217z" />
<glyph unicode="&#xca;" horiz-adv-x="2111" d="M0 0v178h348v778h-348v181h1645q85 0 143.5 -59t58.5 -144v-117h-178v117q0 9 -6.5 15.5t-15.5 6.5h-1121v-315h631v109h178v-369h-178v82h-631v-285h1121q9 0 15.5 7t6.5 16v118h178v-118q0 -83 -58.5 -142t-143.5 -59h-1645zM555 1376l369 242l370 -242l-92 -125 l-278 181l-277 -181z" />
<glyph unicode="&#xcb;" horiz-adv-x="2060" d="M0 0v178h346v778h-346v181h1645q85 0 143.5 -59t58.5 -144v-117h-180v117q0 9 -6.5 15.5t-15.5 6.5h-1119v-315h629v109h180v-369h-180v82h-629v-285h1121q8 0 14 7t6 16v118h180v-118q0 -84 -59.5 -142.5t-145.5 -58.5h-1642zM641 1434q0 49 33.5 82.5t83.5 33.5 q48 0 82 -33.5t34 -82.5q0 -47 -34.5 -82t-81.5 -35q-49 0 -83 34.5t-34 82.5zM973 1434q0 49 33.5 82.5t83.5 33.5q48 0 82 -33.5t34 -82.5q0 -47 -34.5 -82t-81.5 -35q-49 0 -83 34.5t-34 82.5z" />
<glyph unicode="&#xcc;" horiz-adv-x="1370" d="M0 0v180h463v778h-463v179h1104v-179h-463v-778h463v-180h-1104zM264 1479l205 118l369 -239l-68 -96z" />
<glyph unicode="&#xcd;" horiz-adv-x="1288" d="M0 0v180h461v778h-461v179h1102v-179h-461v-778h461v-180h-1102zM264 1358l369 239l205 -118l-506 -217z" />
<glyph unicode="&#xce;" horiz-adv-x="1273" d="M0 0v180h461v778h-461v179h1102v-179h-461v-778h461v-180h-1102zM182 1391l369 239l369 -239l-91 -127l-278 182l-279 -180z" />
<glyph unicode="&#xcf;" horiz-adv-x="1384" d="M0 0v180h463v778h-463v179h1104v-179h-461v-778h461v-180h-1104zM270 1430q0 48 34 82t83 34q47 0 82 -34.5t35 -81.5q0 -49 -34.5 -83t-82.5 -34q-49 0 -83 33.5t-34 83.5zM602 1430q0 48 34 82t83 34q47 0 82 -34.5t35 -81.5q0 -49 -34.5 -83t-82.5 -34q-49 0 -83 33.5 t-34 83.5z" />
<glyph unicode="&#xd0;" d="M0 426v184h772v-184h-772z" />
<glyph unicode="&#xd1;" horiz-adv-x="2217" d="M0 0v178h326v778h-326v179h827v-179h-200l932 -473v473h-324v179h827v-179h-323v-778h323v-178h-827v178h324v105l-1055 534v-639h323v-178h-827zM569 1386l13 31q44 112 135 146q49 18 106 18q64 0 154 -22q2 -1 190 -54q63 -18 111 -18q25 0 41 4q27 10 43 43 q0 2 24 49l146 -78l-23 -43q-45 -96 -139 -127q-51 -14 -92 -14q-64 0 -156 25l-188 53q-63 18 -111 18q-30 0 -45 -6q-27 -12 -45 -55l-12 -31z" />
<glyph unicode="&#xd2;" horiz-adv-x="1902" d="M0 479q0 -128 63 -238.5t170 -175.5t230 -65h801q187 0 323.5 142t136.5 337v195q0 126 -61.5 232.5t-167.5 168.5t-231 62h-801q-192 0 -327.5 -135.5t-135.5 -327.5v-195zM180 479v195q0 118 83 201t200 83h801q117 0 199.5 -83t82.5 -201v-195q0 -120 -84.5 -209.5 t-197.5 -89.5h-801q-114 0 -198.5 89.5t-84.5 209.5zM575 1493l205 119l369 -242l-68 -96z" />
<glyph unicode="&#xd3;" horiz-adv-x="1931" d="M0 479v195q0 126 62 232.5t168 168.5t231 62h801q192 0 327 -135.5t135 -327.5v-195q0 -128 -62.5 -238.5t-169 -175.5t-230.5 -65h-801q-123 0 -229.5 65t-169 175.5t-62.5 238.5zM178 479q0 -120 85 -209.5t198 -89.5h801q114 0 198 89.5t84 209.5v195q0 118 -82.5 201 t-199.5 83h-801q-117 0 -200 -83t-83 -201v-195zM575 1370l369 242l205 -119l-506 -219z" />
<glyph unicode="&#xd4;" horiz-adv-x="1902" d="M0 479q0 -128 63 -238.5t170 -175.5t230 -65h801q187 0 323.5 142t136.5 337v195q0 126 -61.5 232.5t-167.5 168.5t-231 62h-801q-125 0 -231.5 -62t-169 -168.5t-62.5 -232.5v-195zM180 479v195q0 118 83 201t200 83h801q117 0 199.5 -83t82.5 -201v-195 q0 -120 -84.5 -209.5t-197.5 -89.5h-801q-114 0 -198.5 89.5t-84.5 209.5zM494 1386l368 240l371 -240l-92 -126l-279 180l-276 -180z" />
<glyph unicode="&#xd5;" horiz-adv-x="1929" d="M0 479v195q0 126 62 232.5t168 168.5t231 62h801q125 0 231.5 -62t168.5 -168.5t62 -232.5v-195q0 -128 -63 -238.5t-169.5 -175.5t-229.5 -65h-801q-123 0 -229.5 65t-169 175.5t-62.5 238.5zM178 479q0 -120 85 -209.5t198 -89.5h801q114 0 198 89.5t84 209.5v195 q0 118 -82.5 201t-199.5 83h-801q-117 0 -200 -83t-83 -201v-195zM399 1366l13 33q42 107 135 145q49 19 104 19q64 0 156 -25q2 0 190 -51q77 -21 113 -21q25 0 39 7q25 6 43 43q0 1 2 4t4 6.5t7 13.5t12 23l145 -78l-23 -41q-45 -96 -139 -127q-41 -14 -92 -14 q-68 0 -156 24l-188 53q-69 19 -113 19q-31 0 -43 -6q-27 -11 -45 -56l-12 -32z" />
<glyph unicode="&#xd6;" horiz-adv-x="1929" d="M0 479v195q0 126 62 232.5t168 168.5t231 62h801q192 0 327 -135.5t135 -327.5v-195q0 -128 -62.5 -238.5t-169 -175.5t-230.5 -65h-801q-123 0 -229.5 65t-169 175.5t-62.5 238.5zM178 479q0 -120 85 -209.5t198 -89.5h801q114 0 198 89.5t84 209.5v195q0 118 -82.5 201 t-199.5 83h-801q-117 0 -200 -83t-83 -201v-195zM580 1444q0 48 33.5 82.5t82.5 34.5q47 0 82 -35t35 -82q0 -49 -34.5 -83t-82.5 -34q-49 0 -82.5 33.5t-33.5 83.5zM911 1444q0 48 34 82.5t83 34.5q47 0 82 -35t35 -82q0 -49 -34.5 -83t-82.5 -34q-50 0 -83.5 33.5 t-33.5 83.5z" />
<glyph unicode="&#xd7;" horiz-adv-x="1052" d="M-2 156l254 252l-254 254l113 112l254 -252l251 252l113 -112l-252 -252l254 -254l-115 -115l-254 254l-251 -252z" />
<glyph unicode="&#xd8;" horiz-adv-x="796" d="M31 0l315 1169h156l-314 -1169h-157z" />
<glyph unicode="&#xd9;" horiz-adv-x="2154" d="M0 956v179h827v-179h-323v-495q0 -117 82.5 -200t199.5 -83h388q117 0 199.5 83t82.5 200v495h-323v179h827v-179h-326v-495q0 -191 -135 -326t-325 -135h-388q-125 0 -231.5 62t-168.5 168t-62 231v495h-324zM651 1489l205 119l369 -242l-68 -96z" />
<glyph unicode="&#xda;" horiz-adv-x="2138" d="M0 956v179h827v-179h-325v-495q0 -117 83 -200t201 -83h385q117 0 200 83t83 200v495h-324v179h828v-179h-324v-495q0 -125 -62 -231t-168.5 -168t-232.5 -62h-385q-126 0 -232.5 62t-168 168t-61.5 231v495h-324zM733 1366l369 242l205 -119l-506 -219z" />
<glyph unicode="&#xdb;" horiz-adv-x="2127" d="M0 956v179h827v-179h-325v-495q0 -117 83 -200t201 -83h385q117 0 200 83t83 200v495h-324v179h828v-179h-324v-495q0 -125 -62 -231t-168.5 -168t-232.5 -62h-385q-126 0 -232.5 62t-168 168t-61.5 231v495h-324zM610 1393l369 239l369 -239l-91 -127l-278 180 l-279 -180z" />
<glyph unicode="&#xdc;" horiz-adv-x="2131" d="M0 956v179h825v-179h-323v-495q0 -117 82.5 -200t199.5 -83h387q117 0 200 83t83 200v495h-324v179h828v-179h-324v-495q0 -125 -62 -231t-168.5 -168t-232.5 -62h-387q-190 0 -325 135t-135 326v495h-324zM696 1417q0 49 34 83t83 34q48 0 82.5 -34t34.5 -83 q0 -47 -35 -82t-82 -35q-49 0 -83 34.5t-34 82.5zM1028 1417q0 49 34 83t83 34q48 0 82.5 -34t34.5 -83q0 -47 -35 -82t-82 -35q-49 0 -83 34.5t-34 82.5z" />
<glyph unicode="&#xdd;" horiz-adv-x="2136" d="M0 956v181h827v-181h-206l348 -370l350 370h-207v181h827v-181h-374l-506 -536v-240h323v-180h-827v180h326v240l-506 536h-375zM688 1411q0 49 34 83t83 34q48 0 82.5 -34t34.5 -83q0 -47 -35 -82t-82 -35q-49 0 -83 34.5t-34 82.5zM1018 1411q0 49 34.5 83t82.5 34 q49 0 82.5 -33.5t33.5 -83.5q0 -48 -33.5 -82.5t-82.5 -34.5q-47 0 -82 35t-35 82z" />
<glyph unicode="&#xf7;" horiz-adv-x="1196" d="M2 311v160h942v-160h-942zM356 102q0 49 34.5 83t82.5 34t82.5 -34t34.5 -83q0 -47 -35 -81.5t-82 -34.5t-82 34.5t-35 81.5zM356 680q0 49 34.5 83t82.5 34t82.5 -34t34.5 -83q0 -47 -35 -82t-82 -35t-82 35t-35 82z" />
<glyph unicode="&#xff;" horiz-adv-x="1705" />
<glyph unicode="&#x2000;" horiz-adv-x="822" />
<glyph unicode="&#x2001;" horiz-adv-x="1645" />
<glyph unicode="&#x2002;" horiz-adv-x="822" />
<glyph unicode="&#x2003;" horiz-adv-x="1645" />
<glyph unicode="&#x2004;" horiz-adv-x="548" />
<glyph unicode="&#x2005;" horiz-adv-x="411" />
<glyph unicode="&#x2006;" horiz-adv-x="274" />
<glyph unicode="&#x2007;" horiz-adv-x="274" />
<glyph unicode="&#x2008;" horiz-adv-x="205" />
<glyph unicode="&#x2009;" horiz-adv-x="329" />
<glyph unicode="&#x200a;" horiz-adv-x="91" />
<glyph unicode="&#x2010;" d="M0 426v184l772 -4v-180h-772z" />
<glyph unicode="&#x2011;" d="M0 426v184l772 -4v-180h-772z" />
<glyph unicode="&#x2012;" d="M0 426v184l772 -4v-180h-772z" />
<glyph unicode="&#x2013;" horiz-adv-x="1224" d="M0 426v184l915 -4v-180h-915z" />
<glyph unicode="&#x2014;" horiz-adv-x="1619" d="M0 426v184h1300v-184h-1300z" />
<glyph unicode="&#x2018;" horiz-adv-x="339" d="M-2 823v217l61 160h54v-141l71 -41v-195h-186z" />
<glyph unicode="&#x2019;" horiz-adv-x="456" d="M0 1006v194h186v-217l-61 -160h-53v142z" />
<glyph unicode="&#x201c;" horiz-adv-x="796" d="M-2 823v217l61 160h54v-141l71 -41v-195h-186zM244 823v217l61 160h53v-141l72 -41v-195h-186z" />
<glyph unicode="&#x201d;" horiz-adv-x="768" d="M0 1006v194h186v-217l-61 -160h-53v142zM246 1006v194h186v-217l-61 -160h-54v142z" />
<glyph unicode="&#x2022;" horiz-adv-x="540" d="M14 498q0 46 33.5 79t79.5 33t79.5 -33t33.5 -79t-33.5 -79.5t-79.5 -33.5t-79.5 33.5t-33.5 79.5z" />
<glyph unicode="&#x2026;" horiz-adv-x="1452" d="M76 0v176h235v-176h-235zM506 0v176h235v-176h-235zM936 0v176h235v-176h-235z" />
<glyph unicode="&#x202f;" horiz-adv-x="329" />
<glyph unicode="&#x205f;" horiz-adv-x="411" />
<glyph unicode="&#xe000;" d="M0 0v1137h1137v-1137h-1137z" />
</font>
</defs>
</svg>
